<?xml version="1.0" encoding="utf-8"?>
<!-- Generator: Adobe Illustrator 22.1.0, SVG Export Plug-In . SVG Version: 6.00 Build 0)  -->
<svg version="1.1" id="Layer_1" xmlns="http://www.w3.org/2000/svg" xmlns:xlink="http://www.w3.org/1999/xlink" x="0px" y="0px"
	 viewBox="0 0 30 30" style="enable-background:new 0 0 30 30;" xml:space="preserve">
<style type="text/css">
	.st0{fill:#4BAC73;}
	.st1{opacity:0.5;}
	.st2{fill:#FFFFFF;}
</style>
<g class="st1">
	<g>
		<path class="st2" d="M27.4,20.2c-0.5,0.4-1.1,0.5-1.7,0.5c-1.6,0-2.8-1.3-2.8-2.8s1.3-2.8,2.8-2.8c0.6,0,1.2,0.2,1.7,0.5l1.4,1
			V5.9h-7.1c0.1-0.4,0.2-0.9,0.2-1.3c0-2.5-2-4.6-4.6-4.6s-4.6,2-4.6,4.6c0,0.4,0.1,0.9,0.2,1.3H5.9v7.4c-0.4-0.1-0.9-0.2-1.3-0.2
			c-2.5,0-4.6,2-4.6,4.6s2,4.6,4.6,4.6c0.4,0,0.9-0.1,1.3-0.2v7.6h10.2l-1-1.4c-0.4-0.5-0.5-1.1-0.5-1.7c0-1.6,1.3-2.8,2.8-2.8
			c1.6,0,2.8,1.3,2.8,2.8c0,0.6-0.2,1.2-0.5,1.7l-1,1.4h10.1V19.1L27.4,20.2z M27,28h-5.4c0.1-0.4,0.2-0.9,0.2-1.3
			c0-2.5-2-4.6-4.6-4.6s-4.6,2-4.6,4.6c0,0.4,0.1,0.9,0.2,1.3H7.6v-8.9l-1.4,1c-0.5,0.4-1.1,0.5-1.7,0.5c-1.6,0-2.8-1.3-2.8-2.8
			s1.3-2.8,2.8-2.8c0.6,0,1.2,0.2,1.7,0.5l1.4,1V7.6h8.5l-1-1.4c-0.4-0.5-0.5-1.1-0.5-1.7c0-1.6,1.3-2.8,2.8-2.8
			c1.6,0,2.8,1.3,2.8,2.8c0,0.6-0.2,1.2-0.5,1.7l-1.2,1.4H27v5.8c-0.4-0.1-0.9-0.2-1.3-0.2c-2.5,0-4.6,2-4.6,4.6s2,4.6,4.6,4.6
			c0.4,0,0.9-0.1,1.3-0.2C27,22.1,27,28,27,28z"/>
	</g>
</g>
</svg>
