<svg width="20" height="20" viewBox="0 0 20 20" fill="none" xmlns="http://www.w3.org/2000/svg">
<path d="M10 0C8.02219 0 6.08879 0.586489 4.4443 1.6853C2.79981 2.78412 1.51809 4.3459 0.761209 6.17317C0.00433282 8.00043 -0.193701 10.0111 0.192152 11.9509C0.578004 13.8907 1.53041 15.6725 2.92894 17.0711C4.32746 18.4696 6.10929 19.422 8.0491 19.8079C9.98891 20.1937 11.9996 19.9957 13.8268 19.2388C15.6541 18.4819 17.2159 17.2002 18.3147 15.5557C19.4135 13.9112 20 11.9778 20 10C20 7.34784 18.9464 4.8043 17.0711 2.92893C15.1957 1.05357 12.6522 0 10 0ZM10 18.9474C8.23038 18.9474 6.5005 18.4226 5.02911 17.4395C3.55773 16.4563 2.41092 15.0589 1.73371 13.424C1.05651 11.7891 0.879321 9.99007 1.22456 8.25445C1.56979 6.51884 2.42195 4.92457 3.67326 3.67326C4.92457 2.42194 6.51884 1.56979 8.25446 1.22455C9.99008 0.879317 11.7891 1.0565 13.424 1.73371C15.0589 2.41091 16.4563 3.55772 17.4395 5.02911C18.4226 6.5005 18.9474 8.23038 18.9474 10C18.9474 12.373 18.0047 14.6488 16.3267 16.3267C14.6488 18.0047 12.373 18.9474 10 18.9474Z" fill="white"/>
<path d="M10.5263 4.73685H9.47366V9.47369H4.73682V10.5263H9.47366V15.2632H10.5263V10.5263H15.2631V9.47369H10.5263V4.73685Z" fill="white"/>
</svg>
