<?xml version="1.0" encoding="utf-8"?>
<!-- Generator: Adobe Illustrator 22.1.0, SVG Export Plug-In . SVG Version: 6.00 Build 0)  -->
<svg version="1.1" id="Layer_1" xmlns="http://www.w3.org/2000/svg" xmlns:xlink="http://www.w3.org/1999/xlink" x="0px" y="0px"
	 viewBox="0 0 512 512" style="enable-background:new 0 0 512 512;" xml:space="preserve">
<style type="text/css">
	.st0{opacity:0.19;fill:#4BAC73;}
	.st1{fill:#4BAC73;}
</style>
<path class="st0" d="M469.4,516h-421c-24.9,0-45-20.2-45-45V50c0-24.9,20.2-45,45-45h421c24.9,0,45,20.2,45,45v421
	C514.4,495.9,494.3,516,469.4,516z"/>
<g>
	<path class="st1" d="M267.3,166.7c-44.5-1.2-84,30.8-91.2,75.9c-7.8,49.1,25.7,95.2,74.8,102.9c43.8,7,85.2-18.9,99.1-59.5l26,9
		c-3.6,10.5-8.6,20.2-14.8,29.1l13.6,20.2l-22.3,22.3L332.2,353c-8.8,6.2-18.5,11.3-28.9,14.8l-0.9,24.5l-31.2,4.9l-8.4-23
		c-5.4-0.1-10.8-0.5-16.2-1.4c-5.5-0.9-10.8-2.1-15.9-3.6l-15,19.2L187.4,374l6.7-23.5c-8.7-6.6-16.4-14.3-23-23l-23.5,6.7
		l-14.4-28.1l19.3-15.1c-3.2-10.2-4.9-21-5.1-32.1l-22.9-8.4l4.9-31.1l24.5-0.9c3.6-10.5,8.6-20.2,14.7-29.1L155,169l22.3-22.3
		l20.3,13.7c8.9-6.2,18.7-11.3,29-14.8l1-24.5l31.1-4.9L267.3,166.7z"/>
	<g>
		<path class="st1" d="M313.3,167.5c-1.3,2.2-4.1,3-6.3,1.7l-1.1-0.6c-2.2-1.3-3-4.1-1.7-6.3l13.3-23.3c1.3-2.2,4.1-3,6.3-1.7
			l1.1,0.6c2.2,1.3,3,4.1,1.7,6.3L313.3,167.5z"/>
	</g>
	<g>
		<path class="st1" d="M346.6,206.5c-2.2,1.3-5,0.5-6.3-1.7l-0.6-1c-1.3-2.2-0.5-5,1.7-6.3l23.1-13.5c2.2-1.3,5-0.5,6.3,1.7l0.6,1
			c1.3,2.2,0.5,5-1.7,6.3L346.6,206.5z"/>
	</g>
	<g>
		<path class="st1" d="M356.1,256.9c-2.5,0-4.6-2-4.6-4.6l0-1.2c0-2.5,2.1-4.6,4.6-4.6l26.8-0.2c2.5,0,4.6,2,4.7,4.6l0,1.2
			c0,2.5-2,4.6-4.6,4.7L356.1,256.9z"/>
	</g>
	<g>
		<g>
			<path class="st1" d="M281.1,255.1c0,8.2-6.6,14.8-14.7,14.8c-2.5,0-4.9-0.6-7-1.7l-7.5,7.5l-5-5l7.2-7.2
				c-1.6-2.4-2.5-5.2-2.5-8.2c0-8.1,6.6-14.7,14.8-14.7c3.3,0,6.3,1.1,8.7,2.8l38.9-35.7l1.9,1.9l-36,39.7
				C280.7,250.9,281.1,253,281.1,255.1z"/>
		</g>
	</g>
</g>
</svg>
