<svg id="Layer_1" data-name="Layer 1" xmlns="http://www.w3.org/2000/svg" viewBox="0 0 34.8 35.3"><defs><style>.cls-1{fill:#4bac73;}.cls-2{fill:#91dbaf;}</style></defs><title>Events icon</title><path class="cls-1" d="M26.9,10.9H18.3V8.8H16.1v2.1H7.5a3.2,3.2,0,0,0-3.2,3.3v3.2H30.1V14.2A3.2,3.2,0,0,0,26.9,10.9Z"/><path class="cls-2" d="M32.3,19.5H2.2A2.2,2.2,0,0,0,0,21.7v2.1a4.3,4.3,0,0,0,4.3,4.3,4.3,4.3,0,0,0,4.3-4.3,4.3,4.3,0,1,0,8.6,0,4.3,4.3,0,1,0,8.6,0,4.3,4.3,0,1,0,8.6,0V21.7A2.1,2.1,0,0,0,32.3,19.5Z"/><path class="cls-1" d="M30.1,30.3a6.3,6.3,0,0,1-4.3-1.7,6,6,0,0,1-4.3,1.7,6.3,6.3,0,0,1-4.3-1.7,6,6,0,0,1-4.3,1.7,6.1,6.1,0,0,1-4.3-1.7,6,6,0,0,1-4.3,1.7A6.4,6.4,0,0,1,0,28.6v3.8a2.2,2.2,0,0,0,2.2,2.2H32.3a2.1,2.1,0,0,0,2.1-2.2V28.6A6,6,0,0,1,30.1,30.3Z"/><path class="cls-2" d="M17.2.2s-2.1,3.1-2.1,4.3a2.1,2.1,0,0,0,2.1,2.1,2.1,2.1,0,0,0,2.2-2.1C19.4,3.3,17.2.2,17.2.2Z"/></svg>