<?xml version="1.0" encoding="utf-8"?>
<!-- Generator: Adobe Illustrator 22.1.0, SVG Export Plug-In . SVG Version: 6.00 Build 0)  -->
<svg version="1.1" id="Layer_1" xmlns="http://www.w3.org/2000/svg" xmlns:xlink="http://www.w3.org/1999/xlink" x="0px" y="0px"
	 viewBox="0 0 30 30" style="enable-background:new 0 0 30 30;" xml:space="preserve">
<style type="text/css">
	.st0{fill:#4BAC73;}
	.st1{opacity:0.5;}
	.st2{fill:#FFFFFF;}
</style>
<g>
	<g>
		<g>
			<path class="st0" d="M25.6,9.9c-0.4-0.4-1-0.5-1.5-0.1C22.3,11,13.4,17,12.5,18c-1.4,1.4-1.4,3.6,0,5c0.7,0.7,1.6,1,2.5,1
				c0.9,0,1.8-0.4,2.5-1c1-1,7-9.8,8.2-11.6C26,11,25.9,10.4,25.6,9.9z M15.9,21.3c-0.5,0.5-1.2,0.5-1.6,0c-0.5-0.5-0.5-1.2,0-1.6
				c0.4-0.4,2.9-2.2,5.9-4.3C18,18.5,16.2,21,15.9,21.3z"/>
			<path class="st0" d="M5.4,26l-1.5,0.7c-1.1-1.9-1.6-4-1.6-6.2c0-1.6,0.3-3.1,0.8-4.5l1.6,0.8c0.2,0.1,0.4,0.1,0.5,0.1
				c0.4,0,0.8-0.2,1.1-0.7c0.3-0.6,0.1-1.3-0.5-1.6l-1.6-0.8c2.1-3.3,5.6-5.6,9.7-6.1v1.8c0,0.7,0.5,1.2,1.2,1.2s1.2-0.5,1.2-1.2
				V7.8c1.4,0.1,2.8,0.5,4.1,1.1c0.6,0.2,1.3,0,1.6-0.6c0.2-0.6,0-1.3-0.6-1.6c-1.9-0.9-4.1-1.3-6.2-1.3C11,5.4,7.2,7,4.3,9.8
				s-4.4,6.6-4.4,10.7c0,3,0.9,5.9,2.5,8.4c0.2,0.4,0.6,0.5,1,0.5c0.2,0,0.4-0.1,0.5-0.1l2.4-1.2c0.6-0.3,0.8-1,0.5-1.6
				C6.6,25.9,5.9,25.7,5.4,26z"/>
			<path class="st0" d="M28.8,14.3c-0.2-0.6-1-0.8-1.6-0.6c-0.6,0.2-0.8,1-0.6,1.6c0.7,1.6,1.1,3.4,1.1,5.2c0,2.2-0.5,4.3-1.6,6.2
				l-1.5-0.7c-0.6-0.3-1.3-0.1-1.6,0.5c-0.3,0.6,0,1.3,0.5,1.6l2.5,1.2c0.2,0.1,0.4,0.1,0.5,0.1c0.4,0,0.7-0.2,1-0.5
				c1.7-2.5,2.5-5.4,2.5-8.4C30.1,18.4,29.6,16.2,28.8,14.3z"/>
		</g>
	</g>
</g>
</svg>
