<svg id="Layer_1" data-name="Layer 1" xmlns="http://www.w3.org/2000/svg" viewBox="0 0 37.5 37.5"><defs><style>.cls-1{fill:none;stroke:#4bac73;stroke-miterlimit:10;}.cls-2{fill:#4bac73;}</style></defs><title>user</title><rect class="cls-1" x="0.5" y="0.5" width="36.5" height="36.51" rx="4.1" ry="4.1"/><g id="b"><path class="cls-2" d="M32.7,30.5a3.8,3.8,0,0,0-.9-1.8c-.5-.7-2.5-1.6-6-3-1.2-.5-1.7-1.1-1.7-1.8v-.7A6.8,6.8,0,0,0,25.8,20a1.4,1.4,0,0,0,.9-1.2q.9-1.8-.3-2.4c.6-2.2.5-3.7-.3-4.8L23.6,8.1c0,.6-.2.8-.4.7a1.1,1.1,0,0,0,0-.8,1.3,1.3,0,0,1-.8.7l.3-.6a1,1,0,0,1-1,.5c-.1-.1-.1-.4.1-.7l-.6.6c-.2-.1-.3-.3-.3-.8l-.6.8q-.6-.1,0-.9c-.5.1-.8.4-.8.7a.6.6,0,0,1-.3-.6,18.8,18.8,0,0,1-2,2l-1.6,1.5a3.7,3.7,0,0,0-1,2.8,6.2,6.2,0,0,0,.5,2.4c-.8.5-.9,1.3-.4,2.5s.4,1,.9,1a7.8,7.8,0,0,0,1.9,3.3,2.2,2.2,0,0,1-1.1,2.2l-2,.9-2.1.8A6.1,6.1,0,0,0,9.5,29a3.8,3.8,0,0,0-.7,2.8H32.7A2.8,2.8,0,0,0,32.7,30.5Z" transform="translate(-2 -0.9)"/></g><path id="a" class="cls-2" d="M32.7,31.8a2.8,2.8,0,0,0,0-1.3,3.8,3.8,0,0,0-.9-1.8c-.5-.7-2.5-1.6-6-3-1.2-.5-1.7-1.1-1.7-1.8v-.7A6.8,6.8,0,0,0,25.8,20a1.4,1.4,0,0,0,.9-1.2q.9-1.8-.3-2.4c.6-2.2.5-3.7-.3-4.8L23.6,8.1c0,.6-.2.8-.4.7a1.1,1.1,0,0,0,0-.8,1.3,1.3,0,0,1-.8.7l.3-.6a1,1,0,0,1-1,.5c-.1-.1-.1-.4.1-.7l-.6.6c-.2-.1-.3-.3-.3-.8l-.6.8q-.6-.1,0-.9c-.5.1-.8.4-.8.7a.6.6,0,0,1-.3-.6,18.8,18.8,0,0,1-2,2l-1.6,1.5a3.7,3.7,0,0,0-1,2.8,6.2,6.2,0,0,0,.5,2.4c-.8.5-.9,1.3-.4,2.5s.4,1,.9,1a7.8,7.8,0,0,0,1.9,3.3,2.2,2.2,0,0,1-1.1,2.2l-2,.9-2.1.8A6.1,6.1,0,0,0,9.5,29a3.8,3.8,0,0,0-.7,2.8Z" transform="translate(-2 -0.9)"/></svg>