<?xml version="1.0" encoding="utf-8"?>
<!-- Generator: Adobe Illustrator 22.1.0, SVG Export Plug-In . SVG Version: 6.00 Build 0)  -->
<svg version="1.1" id="Layer_1" xmlns="http://www.w3.org/2000/svg" xmlns:xlink="http://www.w3.org/1999/xlink" x="0px" y="0px"
	 viewBox="0 0 40 40" style="enable-background:new 0 0 40 40;" xml:space="preserve">
<style type="text/css">
	.st0{opacity:0.53;fill:#4BAC73;}
	.st1{fill:#4BAC73;}
</style>
<path class="st0" d="M25.4,18.7h-3.6c-0.4,0-0.7,0.3-0.7,0.7v2.8c0,0.4,0.3,0.7,0.7,0.7h3.6c0.4,0,0.7-0.3,0.7-0.7v-2.8
	C26.1,19.1,25.8,18.7,25.4,18.7z"/>
<path class="st0" d="M31.4,18.7h-3.6c-0.4,0-0.7,0.3-0.7,0.7v2.8c0,0.4,0.3,0.7,0.7,0.7h3.6c0.4,0,0.7-0.3,0.7-0.7v-2.8
	C32.1,19.1,31.8,18.7,31.4,18.7z"/>
<path class="st1" d="M13.3,23.9H9.7c-0.4,0-0.7,0.3-0.7,0.7v2.8c0,0.4,0.3,0.7,0.7,0.7h3.6c0.4,0,0.7-0.3,0.7-0.7v-2.8
	C14,24.2,13.7,23.9,13.3,23.9z"/>
<path class="st0" d="M19.3,23.9h-3.6c-0.4,0-0.7,0.3-0.7,0.7v2.8c0,0.4,0.3,0.7,0.7,0.7h3.6c0.4,0,0.7-0.3,0.7-0.7v-2.8
	C20,24.2,19.7,23.9,19.3,23.9z"/>
<path class="st0" d="M25.4,23.9h-3.6c-0.4,0-0.7,0.3-0.7,0.7v2.8c0,0.4,0.3,0.7,0.7,0.7h3.6c0.4,0,0.7-0.3,0.7-0.7v-2.8
	C26.1,24.2,25.8,23.9,25.4,23.9z"/>
<path class="st0" d="M31.4,23.9h-3.6c-0.4,0-0.7,0.3-0.7,0.7v2.8c0,0.4,0.3,0.7,0.7,0.7h3.6c0.4,0,0.7-0.3,0.7-0.7v-2.8
	C32.1,24.2,31.8,23.9,31.4,23.9z"/>
<path class="st0" d="M13.3,29.1H9.7c-0.4,0-0.7,0.3-0.7,0.7v2.8c0,0.4,0.3,0.7,0.7,0.7h3.6c0.4,0,0.7-0.3,0.7-0.7v-2.8
	C14,29.4,13.7,29.1,13.3,29.1z"/>
<path class="st0" d="M19.3,29.1h-3.6c-0.4,0-0.7,0.3-0.7,0.7v2.8c0,0.4,0.3,0.7,0.7,0.7h3.6c0.4,0,0.7-0.3,0.7-0.7v-2.8
	C20,29.4,19.7,29.1,19.3,29.1z"/>
<path class="st1" d="M25.4,29.1h-3.6c-0.4,0-0.7,0.3-0.7,0.7v2.8c0,0.4,0.3,0.7,0.7,0.7h3.6c0.4,0,0.7-0.3,0.7-0.7v-2.8
	C26.1,29.4,25.8,29.1,25.4,29.1z"/>
<path class="st1" d="M28.6,9.5h1c0.9,0,1.7-0.6,1.7-1.4V2.4c0-0.8-0.8-1.4-1.7-1.4h-1C27.7,1,27,1.6,27,2.4v5.7
	C27,8.8,27.7,9.5,28.6,9.5z"/>
<path class="st1" d="M35.5,4.2H32v4.3c0,1.2-1,2.2-2.2,2.2h-1.3c-1.2,0-2.2-1-2.2-2.2V4.2h-12v4.3c0,1.2-1,2.2-2.2,2.2h-1.3
	c-1.2,0-2.2-1-2.2-2.2V4.2H5.1C4,4.2,3.2,5,3.2,6.1v30C3.2,37.1,4,38,5.1,38h30.4c1.1,0,1.9-0.9,1.9-1.9v-30
	C37.4,5,36.5,4.2,35.5,4.2z M34.2,32.6c0,1.2-0.9,2.1-1.9,2.1h-24c-1.1,0-1.9-0.9-1.9-2.1V19c0-1.2,0.9-2.1,1.9-2.1h24
	c1.1,0,1.9,0.9,1.9,2.1V32.6z"/>
<path class="st1" d="M10.9,9.5h1c0.9,0,1.7-0.6,1.7-1.4V2.4c0-0.8-0.8-1.4-1.7-1.4h-1C10,1,9.3,1.6,9.3,2.4v5.7
	C9.3,8.8,10,9.5,10.9,9.5z"/>
</svg>
