<svg width="50" height="50" viewBox="0 0 25 25" fill="none" xmlns="http://www.w3.org/2000/svg">
<path d="M6.23071 5.50781C7.33528 5.50781 8.23071 4.61238 8.23071 3.50781C8.23071 2.40324 7.33528 1.50781 6.23071 1.50781C5.12614 1.50781 4.23071 2.40324 4.23071 3.50781C4.23071 4.61238 5.12614 5.50781 6.23071 5.50781Z" fill="#5C5D5D"/>
<path d="M6.23077 0C1.84615 0 0 3.46154 0 3.46154V3.53846C0 3.53846 2 7 6.23077 7C10.6154 7 12.4615 3.53846 12.4615 3.53846V3.46154C12.4615 3.47692 10.4615 0 6.23077 0ZM6.23077 6.12308C4.78462 6.12308 3.61538 4.95385 3.61538 3.50769C3.61538 2.06154 4.78462 0.892308 6.23077 0.892308C7.67692 0.892308 8.84615 2.06154 8.84615 3.50769C8.84615 4.95385 7.67692 6.12308 6.23077 6.12308Z" fill="#5C5D5D"/>
</svg>
