<svg id="Layer_1" data-name="Layer 1" xmlns="http://www.w3.org/2000/svg" viewBox="0 0 34.8 35.3"><defs><style>.cls-1{fill:#91dbaf;}.cls-2{fill:#4bac73;}</style></defs><title>Events icon</title><path class="cls-1" d="M12.7,18.5l2.5-1.4-2.5-1.3,1.5-2.3H11.4V10.8L9.1,12.3,7.8,9.8,6.5,12.3,4.1,10.8v2.8H1.4l1.5,2.3L.4,17.1l2.5,1.4L1.4,20.8H4.2v2.8L6.5,22l1.3,2.5L9.1,22l2.4,1.5V20.7h2.8ZM7.8,20.8a3.7,3.7,0,1,1,3.7-3.7A3.7,3.7,0,0,1,7.8,20.8Z"/><path class="cls-1" d="M31.4,31.8a3.7,3.7,0,0,1-4.6,0,5.2,5.2,0,0,0-3.5-1.2,5.1,5.1,0,0,0-3.4,1.2,3.7,3.7,0,0,1-4.6,0,4.9,4.9,0,0,0-3.4-1.2,5.2,5.2,0,0,0-3.5,1.2,3.4,3.4,0,0,1-2.2.8,3.5,3.5,0,0,1-2.3-.8A5.2,5.2,0,0,0,.4,30.6v2a3.4,3.4,0,0,1,2.3.8,5.7,5.7,0,0,0,3.5,1.2,5.7,5.7,0,0,0,3.4-1.2,3.4,3.4,0,0,1,2.3-.8,3.4,3.4,0,0,1,2.3.8,5.4,5.4,0,0,0,3.4,1.2,5.7,5.7,0,0,0,3.5-1.2,2.9,2.9,0,0,1,2.2-.8,3.2,3.2,0,0,1,2.3.8,5.7,5.7,0,0,0,3.5,1.2,5.4,5.4,0,0,0,3.4-1.2,3.4,3.4,0,0,1,2.3-.8v-2A4.7,4.7,0,0,0,31.4,31.8Z"/><path class="cls-2" d="M33.8,7.6a11.1,11.1,0,0,0-5.4-5.3L28.9,1,27,.3l-.5,1.3A11.1,11.1,0,0,0,13.3,8.5l-.4,1.1,1.2.2a16.2,16.2,0,0,1,5.3,2H20l2.7.3L18,25.1h-.4a25.7,25.7,0,0,0-9.1,1.6,24.5,24.5,0,0,0-5.2,2.4,8.5,8.5,0,0,1,1.7,1c.6.4.7.5,1.2.5s.5-.1,1.1-.5a7.2,7.2,0,0,1,4.6-1.5,7.2,7.2,0,0,1,4.6,1.5c.6.4.6.5,1.1.5s.5-.1,1.1-.5a7.7,7.7,0,0,1,4.6-1.5,7.2,7.2,0,0,1,4.6,1.5c.6.4.7.5,1.2.5s.5-.1,1.1-.5a8.5,8.5,0,0,1,1.7-1,24.5,24.5,0,0,0-5.2-2.4,25.3,25.3,0,0,0-6.6-1.5l4.5-12.3a10.7,10.7,0,0,1,2.2,1.5l.3.2h.2a17.4,17.4,0,0,1,5.4,1.9l1,.6.4-1.1A11.4,11.4,0,0,0,33.8,7.6Z"/></svg>