<?xml version="1.0" encoding="utf-8"?>
<!-- Generator: Adobe Illustrator 22.1.0, SVG Export Plug-In . SVG Version: 6.00 Build 0)  -->
<svg version="1.1" id="Layer_1" xmlns="http://www.w3.org/2000/svg" xmlns:xlink="http://www.w3.org/1999/xlink" x="0px" y="0px"
	 viewBox="0 0 512 512" style="enable-background:new 0 0 512 512;" xml:space="preserve">
<style type="text/css">
	.st0{opacity:0.19;fill:#4BAC73;}
	.st1{fill:#4BAC73;}
</style>
<path class="st0" d="M466.4,519.7h-421c-24.9,0-45-20.2-45-45v-421c0-24.9,20.2-45,45-45h421c24.9,0,45,20.2,45,45v421
	C511.4,499.6,491.3,519.7,466.4,519.7z"/>
<g>
	<path class="st1" d="M360.4,131.2H208.4c-10.5,0-19,8.5-19,19v19h19v-19h151.9l-76,38v151.9h-76v-19h-19v19c0,10.5,8.5,19,19,19h76
		v38l83-33.2c7.2-2.9,11.9-9.9,11.9-17.6V150.2C379.3,139.7,370.8,131.2,360.4,131.2z"/>
	<polygon class="st1" points="208.4,302.2 265.4,245.2 208.4,188.2 208.4,226.2 132.4,226.2 132.4,264.2 208.4,264.2 	"/>
</g>
</svg>
