<?xml version="1.0" encoding="utf-8"?>
<!-- Generator: Adobe Illustrator 22.1.0, SVG Export Plug-In . SVG Version: 6.00 Build 0)  -->
<svg version="1.1" id="Layer_1" xmlns="http://www.w3.org/2000/svg" xmlns:xlink="http://www.w3.org/1999/xlink" x="0px" y="0px"
	 viewBox="0 0 30 30" style="enable-background:new 0 0 30 30;" xml:space="preserve">
<style type="text/css">
	.st0{fill:#4BAC73;}
	.st1{opacity:0.5;}
	.st2{fill:#FFFFFF;}
</style>
<g>
	<path class="st0" d="M14,29.9c-7.4,0-13.4-6-13.4-13.4S6.6,3,14,3c2.6,0,5.1,0.8,7.3,2.1c0.4,0.3,0.5,0.8,0.3,1.3
		c-0.3,0.4-0.8,0.5-1.3,0.3c-1.9-1.2-4-1.9-6.2-1.9c-6.4,0-11.7,5.2-11.7,11.7c0,6.4,5.2,11.7,11.7,11.7c6.4,0,11.7-5.2,11.7-11.7
		c0-0.4,0-0.8-0.1-1.2c-0.1-0.5,0.3-1,0.8-1c0.5-0.1,1,0.3,1,0.8c0.1,0.4,0.1,0.9,0.1,1.3C27.5,23.9,21.4,29.9,14,29.9z"/>
	<path class="st0" d="M15.5,19.5c-0.2,0-0.5-0.1-0.6-0.3l-5.5-5.5c-0.3-0.3-0.3-1,0-1.3c0.3-0.3,1-0.3,1.3,0l4.9,4.9L28.4,4.5
		c0.3-0.3,1-0.3,1.3,0c0.3,0.3,0.3,1,0,1.3L16.2,19.2C16,19.4,15.8,19.5,15.5,19.5z"/>
</g>
</svg>
