<?xml version="1.0" encoding="utf-8"?>
<!-- Generator: Adobe Illustrator 22.1.0, SVG Export Plug-In . SVG Version: 6.00 Build 0)  -->
<svg version="1.1" id="Layer_1" xmlns="http://www.w3.org/2000/svg" xmlns:xlink="http://www.w3.org/1999/xlink" x="0px" y="0px"
	 viewBox="0 0 512 512" style="enable-background:new 0 0 512 512;" xml:space="preserve">
<style type="text/css">
	.st0{opacity:0.19;fill:#4BAC73;}
	.st1{fill:#4BAC73;}
</style>
<path class="st0" d="M470,514.3H49c-24.9,0-45-20.2-45-45v-421c0-24.9,20.2-45,45-45h421c24.9,0,45,20.2,45,45v421
	C515,494.2,494.9,514.3,470,514.3z"/>
<g>
	<path class="st1" d="M341.8,366.9h-10.8c0.1-10.3,0-28.6,0-42.9c0-18.4-11.7-28.3-33.5-46.4c-6.3-5.3-13.8-11.4-22.3-18.9
		c8.4-7.4,15.9-13.6,22.3-18.9c21.8-18,33.8-28,33.8-46.4c0-14.3,0.1-32.6,0-42.9h10.5c5.2,0,9.3-4.6,9.3-9.7s-4.2-9.7-9.3-9.7
		H177.2c-5.2,0-9.3,4.6-9.3,9.7s4.2,9.7,9.3,9.7h10.5c-0.1,10.3,0,28.6,0,42.9c0,18.4,12,28.3,33.8,46.4
		c6.3,5.3,13.8,11.4,22.3,18.9c-8.4,7.4-15.9,13.6-22.3,18.9c-21.8,18.1-33.8,28-33.8,46.4c0,14.3-0.1,32.6,0,42.9h-10.5
		c-5.2,0-9.3,4.6-9.3,9.7s4.2,9.7,9.3,9.7h164.5c5.2,0,9.3-4.6,9.3-9.7S346.9,366.9,341.8,366.9z M209,208c-4.3-5-6-9.3-6-14.5
		c0-14.3-0.1-32.6,0-42.9h113c0.1,10.2,0,28.5,0,42.9c0,5.2-1.8,9.5-6,14.5H209z M315.7,366.9c0,0-25.2-13.4-46.7-16.9
		c0.3-1,0.5-2,0.5-3.1c0-5.4-4.4-9.8-9.8-9.8c-5.4,0-9.8,4.4-9.8,9.8c0,1.1,0.2,2.1,0.5,3c-21.6,3.4-47.1,17-47.1,17
		c-0.1-10.2,0-28.5,0-42.9c0-10.7,6.9-17.2,28-34.6c5.5-4.6,11.9-9.9,19.1-16.1c1.2,4,4.9,7,9.4,7c4.3,0,8-2.8,9.3-6.7
		c7,6.1,13.3,11.3,18.7,15.8c21,17.4,28,24,28,34.6C315.7,338.4,315.8,356.7,315.7,366.9z M269.5,308.7c0,5.4-4.4,9.8-9.8,9.8
		c-5.4,0-9.8-4.4-9.8-9.8c0-5.4,4.4-9.8,9.8-9.8C265.1,298.9,269.5,303.3,269.5,308.7z"/>
</g>
</svg>
