<svg width="25" height="24" viewBox="0 0 25 24" fill="none" xmlns="http://www.w3.org/2000/svg">
<g opacity="0.5">
<path d="M5.00351 0.992249C4.73812 0.992275 4.4836 1.09771 4.29594 1.28538C4.10827 1.47304 4.00283 1.72756 4.00281 1.99295V18.0042C4.00283 18.2696 4.10827 18.5241 4.29594 18.7118C4.4836 18.8995 4.73812 19.0049 5.00351 19.0049H23.0162C23.2816 19.0049 23.5361 18.8995 23.7238 18.7118C23.9114 18.5241 24.0169 18.2696 24.0169 18.0042V5.99577C24.0169 5.73037 23.9114 5.47586 23.7238 5.28819C23.5361 5.10053 23.2816 4.99509 23.0162 4.99506H13.8965L11.8735 1.4926C11.7858 1.3406 11.6596 1.21436 11.5076 1.12654C11.3556 1.03872 11.1833 0.992404 11.0077 0.992249H5.00351ZM6.00422 2.99366H10.4291L12.4521 6.49612C12.5398 6.64813 12.666 6.77439 12.818 6.86221C12.97 6.95003 13.1424 6.99633 13.318 6.99647H22.0155V17.0035H6.00422V2.99366Z" fill="white"/>
<path d="M1.0007 4.99506C0.448015 4.99506 0 5.4431 0 5.99577V22.007C0.00010007 22.5597 0.448015 23.0077 1.0007 23.0077H19.0134C19.2788 23.0077 19.5333 22.9023 19.721 22.7146C19.9086 22.527 20.0141 22.2724 20.0141 22.007C20.0141 21.7416 19.9086 21.4871 19.721 21.2994C19.5333 21.1118 19.2788 21.0063 19.0134 21.0063H2.00141V5.99577C2.00141 5.4431 1.55339 4.99506 1.0007 4.99506Z" fill="white"/>
</g>
</svg>
