<?xml version="1.0" encoding="utf-8"?>
<!-- Generator: Adobe Illustrator 22.1.0, SVG Export Plug-In . SVG Version: 6.00 Build 0)  -->
<svg version="1.1" id="Layer_1" xmlns="http://www.w3.org/2000/svg" xmlns:xlink="http://www.w3.org/1999/xlink" x="0px" y="0px"
	 viewBox="0 0 128 36" style="enable-background:new 0 0 128 36;" xml:space="preserve">
<style type="text/css">
	.st0{clip-path:url(#SVGID_2_);fill:url(#SVGID_3_);}
	.st1{filter:url(#Adobe_OpacityMaskFilter);}
	.st2{enable-background:new    ;}
	.st3{clip-path:url(#SVGID_6_);fill:#FFFFFF;}
	.st4{opacity:0.4;mask:url(#SVGID_4_);}
	.st5{clip-path:url(#SVGID_8_);fill:#010101;}
	.st6{fill:#666666;}
	.st7{fill:#989898;}
</style>
<g>
	<g>
		<g>
			<defs>
				<path id="SVGID_1_" d="M6.5,7.1C6.2,7.1,6,7.4,6,7.8v11.9c0,0.4,0.2,0.7,0.5,0.7h7.9c0.3,0,0.5,0.3,0.5,0.7V23
					c0,0.4-0.2,0.7-0.5,0.7H6.5c-0.3,0-0.5,0.3-0.5,0.7v4.6c0,0.4,0.2,0.7,0.5,0.7h16.8c0.3,0,0.5-0.3,0.5-0.7v-10
					c0-0.4-0.2-0.7-0.5-0.7h-7.9c-0.3,0-0.5-0.3-0.5-0.7v-1.9c0-0.4,0.2-0.7,0.5-0.7h7.9c0.3,0,0.5-0.3,0.5-0.7v-0.8
					c0-0.2-0.1-0.4-0.2-0.5l-4.5-5.6c-0.1-0.1-0.2-0.2-0.4-0.2H6.5z"/>
			</defs>
			<clipPath id="SVGID_2_">
				<use xlink:href="#SVGID_1_"  style="overflow:visible;"/>
			</clipPath>
			
				<linearGradient id="SVGID_3_" gradientUnits="userSpaceOnUse" x1="-231.4422" y1="450.8455" x2="-231.1656" y2="450.8455" gradientTransform="matrix(72.8259 71.4119 -71.4119 72.8259 49055.5039 -16297.1553)">
				<stop  offset="0" style="stop-color:#50B965"/>
				<stop  offset="1" style="stop-color:#374C9F"/>
			</linearGradient>
			<polygon class="st0" points="-5.2,18.5 15.1,38.5 35.1,18.1 14.8,-1.8 			"/>
		</g>
		<defs>
			<filter id="Adobe_OpacityMaskFilter" filterUnits="userSpaceOnUse" x="6" y="18.2" width="17.9" height="8.5">
				<feColorMatrix  type="matrix" values="1 0 0 0 0  0 1 0 0 0  0 0 1 0 0  0 0 0 1 0"/>
			</filter>
		</defs>
		<mask maskUnits="userSpaceOnUse" x="6" y="18.2" width="17.9" height="8.5" id="SVGID_4_">
			<g class="st1">
				<rect x="6" y="18.2" width="17.9" height="8.5"/>
				<g class="st2">
					<g>
						<defs>
							<rect id="SVGID_5_" x="6" y="18.2" width="17.9" height="8.5"/>
						</defs>
						<clipPath id="SVGID_6_">
							<use xlink:href="#SVGID_5_"  style="overflow:visible;"/>
						</clipPath>
						<path class="st3" d="M6,7.8v11.9c0,0.4,0.3,0.7,0.7,0.7h9.9c0.4,0,0.7,0.3,0.7,0.7V23c0,0.4-0.3,0.7-0.7,0.7H6.7
							c-0.4,0-0.7,0.3-0.7,0.7v4.6c0,0.4,0.3,0.7,0.7,0.7h21.1c0.4,0,0.7-0.3,0.7-0.7v-10c0-0.4-0.3-0.7-0.7-0.7h-9.9
							c-0.4,0-0.7-0.3-0.7-0.7v-1.9c0-0.4,0.3-0.7,0.7-0.7h9.9c0.4,0,0.7-0.3,0.7-0.7v-0.8c0-0.2-0.1-0.4-0.2-0.5l-5.6-5.6
							c-0.1-0.1-0.3-0.2-0.5-0.2H6.7C6.3,7.1,6,7.4,6,7.8"/>
					</g>
				</g>
			</g>
		</mask>
		<g class="st4">
			<g>
				<defs>
					<rect id="SVGID_7_" x="6" y="18.2" width="17.9" height="8.5"/>
				</defs>
				<clipPath id="SVGID_8_">
					<use xlink:href="#SVGID_7_"  style="overflow:visible;"/>
				</clipPath>
				<path class="st5" d="M14.3,23.6c0,0-8.3,0.7-8.3,3.1v-2.4c0-0.4,0.3-0.7,0.7-0.7H14.3z"/>
				<path class="st5" d="M15.9,18.2c0,0,8,0.7,8,2.8l0-2.2c0-0.4-0.3-0.7-0.7-0.7h0L15.9,18.2z"/>
			</g>
		</g>
	</g>
	<g>
		<path class="st6" d="M36,16.6l-1.3-0.8c-0.8-0.5-1.4-1-1.7-1.4c-0.3-0.5-0.5-1-0.5-1.6c0-0.9,0.3-1.7,1-2.2C34.1,10,35,9.7,36,9.7
			c1,0,1.9,0.3,2.7,0.8v1.9c-0.8-0.8-1.7-1.2-2.7-1.2c-0.5,0-1,0.1-1.3,0.4c-0.4,0.3-0.5,0.6-0.5,1c0,0.4,0.1,0.7,0.4,1
			c0.3,0.3,0.7,0.6,1.2,1l1.3,0.8c1.4,0.8,2.1,1.9,2.1,3.2c0,0.9-0.3,1.7-0.9,2.3c-0.6,0.6-1.4,0.9-2.4,0.9c-1.2,0-2.2-0.4-3.1-1.1
			v-2.1c0.9,1.1,1.9,1.7,3.1,1.7c0.5,0,1-0.1,1.3-0.4c0.3-0.3,0.5-0.7,0.5-1.1C37.5,17.9,37,17.2,36,16.6 M46.3,9.7
			c1.8,0,3.3,0.6,4.5,1.7c1.2,1.1,1.8,2.6,1.8,4.3c0,1.7-0.6,3.1-1.8,4.3c-1.2,1.1-2.7,1.7-4.6,1.7c-1.8,0-3.2-0.6-4.4-1.7
			c-1.2-1.1-1.8-2.5-1.8-4.2c0-1.7,0.6-3.2,1.8-4.3C43,10.2,44.5,9.7,46.3,9.7 M46.4,11.2c-1.3,0-2.4,0.4-3.3,1.3
			c-0.9,0.8-1.3,1.9-1.3,3.2c0,1.3,0.4,2.3,1.3,3.1c0.9,0.8,1.9,1.3,3.2,1.3c1.3,0,2.4-0.4,3.3-1.3c0.9-0.9,1.3-1.9,1.3-3.2
			c0-1.2-0.4-2.3-1.3-3.1C48.7,11.7,47.7,11.2,46.4,11.2 M62.4,9.8h1.7v6.6c0,0.9-0.1,1.6-0.2,2c-0.1,0.5-0.3,0.8-0.5,1.1
			c-0.2,0.3-0.4,0.6-0.7,0.8c-0.9,0.8-2.1,1.2-3.6,1.2c-1.5,0-2.7-0.4-3.7-1.2c-0.3-0.2-0.5-0.5-0.7-0.8c-0.2-0.3-0.4-0.7-0.5-1.1
			c-0.1-0.4-0.2-1.1-0.2-2.1V9.8h1.7v6.6c0,1.1,0.1,1.9,0.4,2.3c0.3,0.4,0.6,0.8,1.1,1c0.5,0.3,1.1,0.4,1.8,0.4c1,0,1.8-0.3,2.4-0.8
			c0.3-0.3,0.6-0.6,0.7-1c0.1-0.4,0.2-1,0.2-1.9V9.8z M66,9.8h1.7V20H73v1.5H66V9.8z M84.2,13.6c0,0.4-0.1,0.8-0.2,1.3
			c-0.1,0.4-0.4,0.8-0.7,1.1c-0.3,0.4-0.8,0.6-1.3,0.9c-0.6,0.2-1.2,0.3-2,0.3h-2.3v4.3h-3.5V9.9H80c0.8,0,1.4,0.1,2,0.3
			c0.6,0.2,1,0.5,1.3,0.9c0.3,0.4,0.6,0.7,0.7,1.2C84.2,12.7,84.2,13.1,84.2,13.6 M80.7,13.6c0-0.6-0.2-0.9-0.5-1.1
			c-0.3-0.2-0.9-0.3-1.7-0.3h-0.7v2.8h0.8c0.6,0,1,0,1.3-0.1c0.3-0.1,0.5-0.2,0.7-0.4C80.6,14.2,80.7,13.9,80.7,13.6 M97.1,21.5
			h-3.6l-0.9-2.3h-5l-1,2.3H83l5.1-11.6H92L97.1,21.5z M91.7,17.1L90,12.9l-1.7,4.2H91.7z M108.9,20.7c-0.3,0.1-0.5,0.2-0.6,0.2
			c-0.2,0.1-0.3,0.1-0.5,0.2c-0.2,0.1-0.4,0.1-0.7,0.2c-0.5,0.1-1.1,0.2-1.6,0.3c-0.5,0.1-1.1,0.1-1.7,0.1c-1.2,0-2.3-0.2-3.3-0.6
			c-1-0.4-1.8-1.1-2.4-2c-0.6-0.9-0.9-2-0.9-3.3c0-0.8,0.2-1.7,0.5-2.5c0.3-0.8,0.8-1.5,1.4-2c0.5-0.4,1.1-0.7,1.6-0.9
			c0.5-0.2,1.1-0.4,1.6-0.4c0.5-0.1,1.1-0.1,1.7-0.1c1,0,1.9,0.1,2.5,0.2c0.7,0.2,1.4,0.4,2.2,0.6v2.7c-0.5-0.3-1.1-0.6-1.7-0.8
			c-0.6-0.2-1.3-0.3-2.2-0.3c-1,0-1.8,0.2-2.4,0.6c-0.6,0.4-1,0.8-1.3,1.4c-0.2,0.5-0.4,1-0.4,1.5c0,0.6,0.1,1.1,0.4,1.6
			c0.3,0.5,0.7,0.9,1.2,1.2c0.6,0.3,1.2,0.4,2,0.4c0.4,0,0.9-0.1,1.4-0.2v-1.4h-1.6v-2.3h4.6V20.7z M120,21.5h-8.7V9.9h8.6v2.3h-5.1
			v2.1h4.9v2.3h-4.9v2.5h5.2V21.5z"/>
		<rect x="59.6" y="25.9" class="st7" width="0.5" height="3.6"/>
		<polygon class="st7" points="60.6,25.9 63.6,25.9 63.6,26.4 62.4,26.4 62.4,29.5 61.8,29.5 61.8,26.4 60.6,26.4 		"/>
		<path class="st7" d="M66.4,28L66,27.8c-0.2-0.1-0.4-0.3-0.5-0.4c-0.1-0.1-0.2-0.3-0.2-0.5c0-0.3,0.1-0.5,0.3-0.7
			c0.2-0.2,0.4-0.3,0.8-0.3c0.3,0,0.6,0.1,0.8,0.3v0.6c-0.3-0.2-0.5-0.4-0.8-0.4c-0.2,0-0.3,0-0.4,0.1c-0.1,0.1-0.2,0.2-0.2,0.3
			c0,0.1,0,0.2,0.1,0.3c0.1,0.1,0.2,0.2,0.4,0.3l0.4,0.2c0.4,0.3,0.7,0.6,0.7,1c0,0.3-0.1,0.5-0.3,0.7c-0.2,0.2-0.4,0.3-0.7,0.3
			c-0.4,0-0.7-0.1-1-0.3v-0.6c0.3,0.3,0.6,0.5,1,0.5c0.2,0,0.3,0,0.4-0.1c0.1-0.1,0.2-0.2,0.2-0.3C66.9,28.4,66.7,28.2,66.4,28"/>
		<path class="st7" d="M69.7,25.9c0.6,0,1,0.2,1.4,0.5c0.4,0.3,0.6,0.8,0.6,1.3c0,0.5-0.2,1-0.6,1.3c-0.4,0.3-0.8,0.5-1.4,0.5
			c-0.5,0-1-0.2-1.3-0.5c-0.4-0.3-0.5-0.8-0.5-1.3c0-0.5,0.2-1,0.5-1.3C68.7,26,69.1,25.9,69.7,25.9 M69.7,26.3
			c-0.4,0-0.7,0.1-1,0.4c-0.3,0.3-0.4,0.6-0.4,1c0,0.4,0.1,0.7,0.4,1c0.3,0.3,0.6,0.4,1,0.4c0.4,0,0.7-0.1,1-0.4
			c0.3-0.3,0.4-0.6,0.4-1c0-0.4-0.1-0.7-0.4-1C70.4,26.5,70.1,26.3,69.7,26.3"/>
		<polygon class="st7" points="72.3,25.9 72.8,25.9 72.8,29 74.4,29 74.4,29.5 72.3,29.5 		"/>
		<path class="st7" d="M77.3,25.9h0.5v2c0,0.3,0,0.5-0.1,0.6c0,0.1-0.1,0.3-0.1,0.3c-0.1,0.1-0.1,0.2-0.2,0.2
			c-0.3,0.2-0.7,0.4-1.1,0.4c-0.5,0-0.8-0.1-1.1-0.4c-0.1-0.1-0.2-0.2-0.2-0.3c-0.1-0.1-0.1-0.2-0.1-0.3c0-0.1-0.1-0.3-0.1-0.6v-2
			h0.5v2c0,0.3,0,0.6,0.1,0.7c0.1,0.1,0.2,0.2,0.4,0.3c0.2,0.1,0.3,0.1,0.6,0.1c0.3,0,0.6-0.1,0.7-0.2c0.1-0.1,0.2-0.2,0.2-0.3
			c0-0.1,0.1-0.3,0.1-0.6V25.9z"/>
		<polygon class="st7" points="78.2,25.9 81.2,25.9 81.2,26.4 80,26.4 80,29.5 79.4,29.5 79.4,26.4 78.2,26.4 		"/>
		<rect x="81.7" y="25.9" class="st7" width="0.5" height="3.6"/>
		<path class="st7" d="M84.8,25.9c0.6,0,1,0.2,1.4,0.5c0.4,0.3,0.6,0.8,0.6,1.3c0,0.5-0.2,1-0.6,1.3c-0.4,0.3-0.8,0.5-1.4,0.5
			c-0.5,0-1-0.2-1.3-0.5c-0.4-0.3-0.5-0.8-0.5-1.3c0-0.5,0.2-1,0.5-1.3C83.7,26,84.2,25.9,84.8,25.9 M84.8,26.3
			c-0.4,0-0.7,0.1-1,0.4c-0.3,0.3-0.4,0.6-0.4,1c0,0.4,0.1,0.7,0.4,1c0.3,0.3,0.6,0.4,1,0.4c0.4,0,0.7-0.1,1-0.4
			c0.3-0.3,0.4-0.6,0.4-1c0-0.4-0.1-0.7-0.4-1C85.5,26.5,85.2,26.3,84.8,26.3"/>
		<polygon class="st7" points="90.2,25.9 90.6,25.9 90.6,29.5 90.2,29.5 87.8,26.7 87.8,29.5 87.3,29.5 87.3,25.9 87.7,25.9 
			90.2,28.7 		"/>
		<path class="st7" d="M92.3,28l-0.4-0.2c-0.2-0.1-0.4-0.3-0.5-0.4c-0.1-0.1-0.2-0.3-0.2-0.5c0-0.3,0.1-0.5,0.3-0.7
			c0.2-0.2,0.4-0.3,0.8-0.3c0.3,0,0.6,0.1,0.8,0.3v0.6c-0.3-0.2-0.5-0.4-0.8-0.4c-0.2,0-0.3,0-0.4,0.1c-0.1,0.1-0.2,0.2-0.2,0.3
			c0,0.1,0,0.2,0.1,0.3c0.1,0.1,0.2,0.2,0.4,0.3l0.4,0.2c0.4,0.3,0.7,0.6,0.7,1c0,0.3-0.1,0.5-0.3,0.7c-0.2,0.2-0.4,0.3-0.7,0.3
			c-0.4,0-0.7-0.1-1-0.3v-0.6c0.3,0.3,0.6,0.5,1,0.5c0.2,0,0.3,0,0.4-0.1c0.1-0.1,0.2-0.2,0.2-0.3C92.8,28.4,92.6,28.2,92.3,28"/>
	</g>
</g>
</svg>
