<svg id="Layer_1" data-name="Layer 1" xmlns="http://www.w3.org/2000/svg" viewBox="0 0 34.8 35.3"><defs><style>.cls-1{fill:#4bac73;}</style></defs><title>Events icon</title><path class="cls-1" d="M21.1,21.5l5.4-7.6a.5.5,0,0,0,0-.7.6.6,0,0,0-.8-.1l-7.5,5.5a2.1,2.1,0,0,0-.9,1.5,2.3,2.3,0,0,0,.6,1.6,2,2,0,0,0,1.5.6A2.1,2.1,0,0,0,21.1,21.5Z"/><path class="cls-1" d="M32.6,11.6h0a14.6,14.6,0,0,0-2.1-2.8l1.3-1.3.8.9,2.5-2.5L32.6,3.3,30.1,5.8l.8.8L29.7,7.9a18.6,18.6,0,0,0-2.8-2.1h-.1a15.1,15.1,0,0,0-6-1.9V3.1h.9a1.5,1.5,0,0,0,1.5-1.5A1.5,1.5,0,0,0,21.7.1H16.4A1.5,1.5,0,0,0,15,1.6a1.5,1.5,0,0,0,1.4,1.5h.9v.6L15.4,4a.6.6,0,0,0-.4.7c.1.4.4.6.7.5l1.7-.3h1.1V6a.6.6,0,0,0,.6.6.6.6,0,0,0,.5-.6V4.8a13.9,13.9,0,0,1,6.1,1.7l-.5,1a.5.5,0,0,0,.2.8h.3a.5.5,0,0,0,.5-.3l.6-1a14.9,14.9,0,0,1,4.5,4.5l-1,.6a.5.5,0,0,0-.2.8.5.5,0,0,0,.5.3h.3l1-.6a13.3,13.3,0,0,1,1.6,6.2H32.4a.6.6,0,0,0,0,1.2h1.1a13.3,13.3,0,0,1-1.6,6.2l-1-.6a.6.6,0,1,0-.6,1l1,.6a14.9,14.9,0,0,1-4.5,4.5l-.6-1a.8.8,0,0,0-.8-.2.5.5,0,0,0-.2.8l.6,1A14.7,14.7,0,0,1,19.6,34V32.8a.6.6,0,0,0-.5-.6.6.6,0,0,0-.6.6V34l-2.8-.4c-.3-.1-.6.1-.7.5a.6.6,0,0,0,.4.7,22,22,0,0,0,3.6.4h.1a16.7,16.7,0,0,0,7.7-2.1h.1a16.4,16.4,0,0,0,5.7-5.7h0a14.7,14.7,0,0,0,2.1-7.8A14.7,14.7,0,0,0,32.6,11.6Z"/><path class="cls-1" d="M13.8,7.7H10.9A1.3,1.3,0,0,0,9.7,8.9a1.3,1.3,0,0,0,1.2,1.2h2.9a1.2,1.2,0,0,0,0-2.4Z"/><path class="cls-1" d="M13.8,11.8H8A1.2,1.2,0,0,0,6.8,13,1.1,1.1,0,0,0,8,14.1h5.8A1.1,1.1,0,0,0,15,13,1.2,1.2,0,0,0,13.8,11.8Z"/><path class="cls-1" d="M13.8,15.9H5.1a1.2,1.2,0,0,0-1.2,1.2,1.1,1.1,0,0,0,1.2,1.1h8.7A1.1,1.1,0,0,0,15,17.1,1.2,1.2,0,0,0,13.8,15.9Z"/><path class="cls-1" d="M13.8,20H2.7a1.1,1.1,0,0,0-1.1,1.2,1.1,1.1,0,0,0,1.1,1.1H13.8A1.1,1.1,0,0,0,15,21.2,1.2,1.2,0,0,0,13.8,20Z"/><path class="cls-1" d="M13.8,24.1H6.2a1.1,1.1,0,0,0-1.1,1.1,1.1,1.1,0,0,0,1.1,1.2h7.6A1.2,1.2,0,0,0,15,25.2,1.1,1.1,0,0,0,13.8,24.1Z"/><path class="cls-1" d="M13.8,28.2H9.7a1.1,1.1,0,0,0-1.1,1.1,1.1,1.1,0,0,0,1.1,1.2h4.1A1.2,1.2,0,0,0,15,29.3,1.1,1.1,0,0,0,13.8,28.2Z"/></svg>