<svg width="18" height="23" viewBox="0 0 18 23" fill="none" xmlns="http://www.w3.org/2000/svg">
<g opacity="0.5">
<path d="M17.7847 5.55864L12.6563 0.40673C12.5151 0.265581 12.3269 0.195007 12.1152 0.195007H0.75279C0.329346 0.195007 0 0.524353 0 0.947798V21.7907C0 22.2141 0.329346 22.5435 0.75279 22.5435H17.2436C17.6671 22.5435 17.9964 22.2141 17.9964 21.7907V6.09971C18.0199 5.88799 17.9258 5.69979 17.7847 5.55864ZM12.2328 2.14756L16.0674 5.98208H12.2328V2.14756ZM1.52911 21.0379V1.70059H10.7273V6.73488C10.7273 7.15832 11.0566 7.48767 11.4801 7.48767H16.5143V21.0144H1.52911V21.0379Z" fill="#4BAC73"/>
<path d="M13.6443 9.74604H7.73961C7.31616 9.74604 6.98682 10.0754 6.98682 10.4988C6.98682 10.9223 7.31616 11.2516 7.73961 11.2516H13.6678C14.0913 11.2516 14.4206 10.9223 14.4206 10.4988C14.4206 10.0754 14.0678 9.74604 13.6443 9.74604Z" fill="#4BAC73"/>
<path d="M13.6443 13.51H7.73961C7.31616 13.51 6.98682 13.8393 6.98682 14.2628C6.98682 14.6862 7.31616 15.0156 7.73961 15.0156H13.6678C14.0913 15.0156 14.4206 14.6862 14.4206 14.2628C14.3971 13.8393 14.0678 13.51 13.6443 13.51Z" fill="#4BAC73"/>
<path d="M13.6443 17.2739H7.73961C7.31616 17.2739 6.98682 17.6033 6.98682 18.0267C6.98682 18.4502 7.31616 18.7795 7.73961 18.7795H13.6678C14.0913 18.7795 14.4206 18.4502 14.4206 18.0267C14.3971 17.6033 14.0678 17.2739 13.6443 17.2739Z" fill="#4BAC73"/>
<path d="M5.05781 9.74604H4.37559C3.95215 9.74604 3.6228 10.0754 3.6228 10.4988C3.6228 10.9223 3.95215 11.2516 4.37559 11.2516H5.05781C5.48125 11.2516 5.8106 10.9223 5.8106 10.4988C5.8106 10.0754 5.45773 9.74604 5.05781 9.74604Z" fill="#4BAC73"/>
<path d="M5.05781 13.51H4.37559C3.95215 13.51 3.6228 13.8393 3.6228 14.2628C3.6228 14.6862 3.95215 15.0156 4.37559 15.0156H5.05781C5.48125 15.0156 5.8106 14.6862 5.8106 14.2628C5.8106 13.8393 5.45773 13.51 5.05781 13.51Z" fill="#4BAC73"/>
<path d="M5.05781 17.2739H4.37559C3.95215 17.2739 3.6228 17.6033 3.6228 18.0267C3.6228 18.4502 3.95215 18.7795 4.37559 18.7795H5.05781C5.48125 18.7795 5.8106 18.4502 5.8106 18.0267C5.8106 17.6033 5.45773 17.2739 5.05781 17.2739Z" fill="#4BAC73"/>
</g>
</svg>