<svg width="18" height="23" viewBox="0 0 18 23" fill="none" xmlns="http://www.w3.org/2000/svg">
<g opacity="0.5">
<path d="M17.7847 5.5587L12.6563 0.406791C12.5151 0.265642 12.3269 0.195068 12.1152 0.195068H0.75279C0.329346 0.195068 0 0.524414 0 0.947859V21.7907C0 22.2142 0.329346 22.5435 0.75279 22.5435H17.2436C17.6671 22.5435 17.9964 22.2142 17.9964 21.7907V6.09977C18.0199 5.88805 17.9258 5.69985 17.7847 5.5587ZM12.2328 2.14762L16.0674 5.98215H12.2328V2.14762ZM1.52911 21.038V1.70065H10.7273V6.73494C10.7273 7.15838 11.0566 7.48773 11.4801 7.48773H16.5143V21.0144H1.52911V21.038Z" fill="white"/>
<path d="M13.6444 9.74609H7.73967C7.31622 9.74609 6.98688 10.0754 6.98688 10.4989C6.98688 10.9223 7.31622 11.2517 7.73967 11.2517H13.6679C14.0913 11.2517 14.4207 10.9223 14.4207 10.4989C14.4207 10.0754 14.0678 9.74609 13.6444 9.74609Z" fill="white"/>
<path d="M13.6444 13.51H7.73967C7.31622 13.51 6.98688 13.8394 6.98688 14.2628C6.98688 14.6862 7.31622 15.0156 7.73967 15.0156H13.6679C14.0913 15.0156 14.4207 14.6862 14.4207 14.2628C14.3972 13.8394 14.0678 13.51 13.6444 13.51Z" fill="white"/>
<path d="M13.6444 17.2739H7.73967C7.31622 17.2739 6.98688 17.6033 6.98688 18.0267C6.98688 18.4502 7.31622 18.7795 7.73967 18.7795H13.6679C14.0913 18.7795 14.4207 18.4502 14.4207 18.0267C14.3972 17.6033 14.0678 17.2739 13.6444 17.2739Z" fill="white"/>
<path d="M5.05781 9.74609H4.37559C3.95215 9.74609 3.6228 10.0754 3.6228 10.4989C3.6228 10.9223 3.95215 11.2517 4.37559 11.2517H5.05781C5.48125 11.2517 5.8106 10.9223 5.8106 10.4989C5.8106 10.0754 5.45773 9.74609 5.05781 9.74609Z" fill="white"/>
<path d="M5.05781 13.51H4.37559C3.95215 13.51 3.6228 13.8394 3.6228 14.2628C3.6228 14.6862 3.95215 15.0156 4.37559 15.0156H5.05781C5.48125 15.0156 5.8106 14.6862 5.8106 14.2628C5.8106 13.8394 5.45773 13.51 5.05781 13.51Z" fill="white"/>
<path d="M5.05781 17.2739H4.37559C3.95215 17.2739 3.6228 17.6033 3.6228 18.0267C3.6228 18.4502 3.95215 18.7795 4.37559 18.7795H5.05781C5.48125 18.7795 5.8106 18.4502 5.8106 18.0267C5.8106 17.6033 5.45773 17.2739 5.05781 17.2739Z" fill="white"/>
</g>
</svg>
