<svg id="Layer_1" data-name="Layer 1" xmlns="http://www.w3.org/2000/svg" viewBox="0 0 34.8 35.3"><defs><style>.cls-1{opacity:0.5;}.cls-2{fill:#fff;}</style></defs><title>Events icon</title><g class="cls-1"><path class="cls-2" d="M27.1,19.9a2.6,2.6,0,0,1-.8,1.9.4.4,0,0,1-.4.2.5.5,0,0,1-.6-.6.6.6,0,0,1,.1-.4,1.4,1.4,0,0,0,0-2.1.6.6,0,0,1,.9-.9A2.7,2.7,0,0,1,27.1,19.9Z"/><path class="cls-2" d="M15.3,14.6h0l-2.1-2.1h.1Z"/><path class="cls-2" d="M27.6,14.6l-.3-.4-3.8-3.8a2.3,2.3,0,0,0-2.7-.3L18,7.2a2.5,2.5,0,0,0-3.4,0,2.7,2.7,0,0,0-.6,1,2.4,2.4,0,0,0-3.3.3,2.5,2.5,0,0,0,.1,3.3h.1a2.3,2.3,0,0,0-1.6,2.9,2.4,2.4,0,0,0,.6,1.1l.4.4a2.1,2.1,0,0,0-1,.6,2.2,2.2,0,0,0,0,3.3l6,6a8.1,8.1,0,0,0,6,2.6h.1a8.2,8.2,0,0,0,5.9-2.5A8.5,8.5,0,0,0,27.6,14.6ZM26.5,25.4a6.9,6.9,0,0,1-5.2,2.1,7.3,7.3,0,0,1-5.2-2.1l-6-6a1.1,1.1,0,0,1-.3-.8,1.2,1.2,0,0,1,.3-.9,1.4,1.4,0,0,1,1.7,0L16,21.9a.6.6,0,0,0,.8-.8l-4.2-4.2L10.8,15a1,1,0,0,1,0-1.6,1,1,0,0,1,1.6,0l5.1,5.1a.6.6,0,0,0,.9-.9h0l-6.7-6.7a1.2,1.2,0,0,1,0-1.7,1.2,1.2,0,0,1,1.6,0l1.3,1.4,1.6,1.5,3,3a.5.5,0,0,0,.8,0,.5.5,0,0,0,0-.8h0l-3-3L15.5,9.7a1,1,0,0,1,0-1.6,1,1,0,0,1,1.6,0L20,10.9a2.3,2.3,0,0,0,.4,2.7l1.5,1.5a3.5,3.5,0,0,0,.1,4.3h0a.6.6,0,0,0,.9.1.6.6,0,0,0,0-.9h0a2.2,2.2,0,0,1,.2-2.9h0a.7.7,0,0,0,.2-.9h-.1l-2-2a1,1,0,0,1,.3-1.4,1.1,1.1,0,0,1,1.1,0l3.8,3.8.3.3A7.3,7.3,0,0,1,26.5,25.4Z"/><path class="cls-2" d="M27.1,19.9a2.6,2.6,0,0,1-.8,1.9.4.4,0,0,1-.4.2.5.5,0,0,1-.6-.6.6.6,0,0,1,.1-.4,1.4,1.4,0,0,0,0-2.1.6.6,0,0,1,.9-.9A2.7,2.7,0,0,1,27.1,19.9Z"/><path class="cls-2" d="M24.6,10.1a.6.6,0,0,1-.6-.6A1.5,1.5,0,0,0,22.5,8a.6.6,0,0,1-.6-.6.6.6,0,0,1,.6-.6h0a2.7,2.7,0,0,1,2.7,2.7.6.6,0,0,1-.6.6Z"/><path class="cls-2" d="M26.7,10a.7.7,0,0,1-.6-.7,3.5,3.5,0,0,0-3.5-3.4.6.6,0,0,1-.6-.6.6.6,0,0,1,.6-.6,4.7,4.7,0,0,1,4.7,4.7h0a.6.6,0,0,1-.6.6Z"/><path class="cls-2" d="M9.8,24.9a2.7,2.7,0,0,1-2.7-2.7.6.6,0,0,1,.6-.6.6.6,0,0,1,.6.6,1.5,1.5,0,0,0,1.5,1.5.6.6,0,0,1,0,1.2Z"/><path class="cls-2" d="M9.7,27A4.7,4.7,0,0,1,5,22.3a.6.6,0,0,1,.6-.6.6.6,0,0,1,.6.6h0a3.5,3.5,0,0,0,3.4,3.5h.1a.6.6,0,0,1,.6.6A.6.6,0,0,1,9.7,27Z"/></g></svg>